<mxfile host="app.diagrams.net" modified="2023-10-10T12:28:04.516Z" agent="Mozilla/5.0 (Macintosh; Intel Mac OS X 10_15_7) AppleWebKit/537.36 (KHTML, like Gecko) Chrome/117.0.0.0 Safari/537.36" etag="BG_25lxE5cMWt3EmJRzB" version="21.8.0" type="google">
  <diagram name="Page-1" id="9361dd3d-8414-5efd-6122-117bd74ce7a7">
    <mxGraphModel grid="1" page="0" gridSize="10" guides="1" tooltips="1" connect="1" arrows="1" fold="1" pageScale="1.5" pageWidth="826" pageHeight="1169" background="none" math="0" shadow="0">
      <root>
        <mxCell id="0" />
        <mxCell id="1" parent="0" />
        <mxCell id="69" value="" style="fillColor=#DEE8FF;strokeColor=none" vertex="1" parent="1">
          <mxGeometry x="40" y="10" width="1570" height="800" as="geometry" />
        </mxCell>
        <mxCell id="20" value="" style="fillColor=#CCD5EB" vertex="1" parent="1">
          <mxGeometry x="140" y="410" width="1460" height="390" as="geometry" />
        </mxCell>
        <mxCell id="81" value="" style="edgeStyle=elbowEdgeStyle;elbow=horizontal;endArrow=none;dashed=1" edge="1" parent="1">
          <mxGeometry x="1460" y="437.8935185185186" width="100" height="100" as="geometry">
            <mxPoint x="1354.5" y="610" as="sourcePoint" />
            <mxPoint x="1354.5" y="770" as="targetPoint" />
          </mxGeometry>
        </mxCell>
        <mxCell id="2" value="" style="fillColor=#CC4125;strokeColor=#660000" vertex="1" parent="1">
          <mxGeometry x="200" y="150" width="10" height="130" as="geometry" />
        </mxCell>
        <mxCell id="3" value="validate()" style="edgeStyle=none;verticalLabelPosition=top;verticalAlign=bottom;labelPosition=left;align=right" edge="1" parent="1">
          <mxGeometry x="110" y="49.5" width="100" height="100" as="geometry">
            <mxPoint x="110" y="149.5" as="sourcePoint" />
            <mxPoint x="200" y="149.5" as="targetPoint" />
          </mxGeometry>
        </mxCell>
        <mxCell id="4" value=":dialog" style="shadow=1;fillColor=#A2C4C9;strokeColor=none" vertex="1" parent="1">
          <mxGeometry x="152.5" y="60" width="105" height="50" as="geometry" />
        </mxCell>
        <mxCell id="6" value="" style="fillColor=#CC4125;strokeColor=#660000" vertex="1" parent="1">
          <mxGeometry x="342.5" y="180" width="10" height="80" as="geometry" />
        </mxCell>
        <mxCell id="7" value="&lt;&lt;javascript&gt;&gt;&#xa;:Comments" style="shadow=1;fillColor=#A2C4C9;strokeColor=none" vertex="1" parent="1">
          <mxGeometry x="295" y="60" width="105" height="50" as="geometry" />
        </mxCell>
        <mxCell id="8" value="" style="edgeStyle=none;endArrow=none;dashed=1" edge="1" parent="1" source="7" target="6">
          <mxGeometry x="272.3350694444445" y="165" width="100" height="100" as="geometry">
            <mxPoint x="347.2588734567901" y="110" as="sourcePoint" />
            <mxPoint x="347.5761959876544" y="165" as="targetPoint" />
          </mxGeometry>
        </mxCell>
        <mxCell id="9" value="validate()" style="edgeStyle=none;verticalLabelPosition=top;verticalAlign=bottom" edge="1" parent="1">
          <mxGeometry x="220" y="92" width="100" height="100" as="geometry">
            <mxPoint x="210" y="179.5" as="sourcePoint" />
            <mxPoint x="340" y="179.5" as="targetPoint" />
          </mxGeometry>
        </mxCell>
        <mxCell id="11" value="" style="edgeStyle=none;verticalLabelPosition=top;verticalAlign=bottom;endArrow=none;startArrow=classic;dashed=1" edge="1" parent="1">
          <mxGeometry x="220" y="172.25887345679013" width="100" height="100" as="geometry">
            <mxPoint x="210" y="259.7588734567901" as="sourcePoint" />
            <mxPoint x="340" y="259.7588734567901" as="targetPoint" />
          </mxGeometry>
        </mxCell>
        <mxCell id="12" value="" style="edgeStyle=none;verticalLabelPosition=top;verticalAlign=bottom;labelPosition=left;align=right;endArrow=none;startArrow=classic;dashed=1" edge="1" parent="1">
          <mxGeometry x="110" y="179.75887345679013" width="100" height="100" as="geometry">
            <mxPoint x="110" y="279.7588734567901" as="sourcePoint" />
            <mxPoint x="200" y="279.7588734567901" as="targetPoint" />
          </mxGeometry>
        </mxCell>
        <mxCell id="13" value="&lt;&lt;create&gt;&gt;" style="edgeStyle=none;verticalLabelPosition=top;verticalAlign=bottom;dashed=1" edge="1" parent="1">
          <mxGeometry x="385.45524691358025" y="113.91550925925924" width="100" height="100" as="geometry">
            <mxPoint x="352.5" y="201.20563271604937" as="sourcePoint" />
            <mxPoint x="462.5" y="201.20563271604937" as="targetPoint" />
          </mxGeometry>
        </mxCell>
        <mxCell id="15" value="&lt;&lt;javascript&gt;&gt;&#xa;:Proxy" style="shadow=1;fillColor=#A2C4C9;strokeColor=none" vertex="1" parent="1">
          <mxGeometry x="462.2839506172839" y="169.99999999999997" width="105" height="50" as="geometry" />
        </mxCell>
        <mxCell id="16" value="" style="edgeStyle=none;endArrow=none" edge="1" parent="1" source="15" target="17">
          <mxGeometry x="437.042824074074" y="270" width="100" height="100" as="geometry">
            <mxPoint x="514.542824074074" y="219.99999999999997" as="sourcePoint" />
            <mxPoint x="514.542824074074" y="239.99999999999997" as="targetPoint" />
          </mxGeometry>
        </mxCell>
        <mxCell id="17" value="" style="fillColor=#CC4125;strokeColor=#660000" vertex="1" parent="1">
          <mxGeometry x="509.7839506172839" y="244.3942901234568" width="10" height="130" as="geometry" />
        </mxCell>
        <mxCell id="19" value="&lt;&lt;ajax&gt;&gt;" style="edgeStyle=elbowEdgeStyle;elbow=vertical;verticalLabelPosition=top;verticalAlign=bottom" edge="1" parent="1" source="6" target="17">
          <mxGeometry x="350" y="290" width="100" height="100" as="geometry">
            <mxPoint x="350" y="390" as="sourcePoint" />
            <mxPoint x="450" y="290" as="targetPoint" />
          </mxGeometry>
        </mxCell>
        <mxCell id="21" value="" style="fillColor=#CC4125;strokeColor=#660000" vertex="1" parent="1">
          <mxGeometry x="670" y="269.3942901234568" width="10" height="80" as="geometry" />
        </mxCell>
        <mxCell id="22" value="&lt;&lt;servlet&gt;&gt;&#xa;:CVSServlet" style="shadow=1;fillColor=#A2C4C9;strokeColor=none" vertex="1" parent="1">
          <mxGeometry x="622.5" y="60" width="105" height="50" as="geometry" />
        </mxCell>
        <mxCell id="23" value="" style="edgeStyle=none;endArrow=none;dashed=1" edge="1" parent="1" source="22" target="21">
          <mxGeometry x="614.4878472222224" y="174.99999999999997" width="100" height="100" as="geometry">
            <mxPoint x="674.6527777777778" y="110" as="sourcePoint" />
            <mxPoint x="674.6527777777778" y="260" as="targetPoint" />
          </mxGeometry>
        </mxCell>
        <mxCell id="24" value="&lt;&lt;service&gt;&gt;&#xa;:CVSService" style="shadow=1;fillColor=#A2C4C9;strokeColor=none" vertex="1" parent="1">
          <mxGeometry x="750" y="60" width="105" height="50" as="geometry" />
        </mxCell>
        <mxCell id="25" value="" style="edgeStyle=none;endArrow=none;dashed=1" edge="1" parent="1" source="24" target="26">
          <mxGeometry x="727.3350694444446" y="165" width="100" height="100" as="geometry">
            <mxPoint x="802.2588734567901" y="110" as="sourcePoint" />
            <mxPoint x="802.5761959876544" y="165" as="targetPoint" />
          </mxGeometry>
        </mxCell>
        <mxCell id="26" value="" style="fillColor=#CC4125;strokeColor=#660000" vertex="1" parent="1">
          <mxGeometry x="797.4999999999999" y="289.3942901234568" width="10" height="40" as="geometry" />
        </mxCell>
        <mxCell id="27" value="&lt;&lt;ajax&gt;&gt;" style="edgeStyle=elbowEdgeStyle;elbow=vertical;verticalLabelPosition=top;verticalAlign=bottom" edge="1" parent="1" source="17" target="21">
          <mxGeometry x="540" y="270" width="100" height="100" as="geometry">
            <mxPoint x="540" y="370" as="sourcePoint" />
            <mxPoint x="640" y="270" as="targetPoint" />
            <Array as="points">
              <mxPoint x="590" y="270" />
            </Array>
          </mxGeometry>
        </mxCell>
        <mxCell id="28" value="errors" style="edgeStyle=elbowEdgeStyle;elbow=vertical;dashed=1;verticalLabelPosition=bottom;verticalAlign=top" edge="1" parent="1" source="21" target="17">
          <mxGeometry x="550" y="280" width="100" height="100" as="geometry">
            <mxPoint x="529.7839506172838" y="280" as="sourcePoint" />
            <mxPoint x="680" y="280" as="targetPoint" />
            <Array as="points">
              <mxPoint x="593" y="348" />
            </Array>
          </mxGeometry>
        </mxCell>
        <mxCell id="30" value="&lt;&lt;javascript&gt;&gt;&#xa;:GimqRequest&#xa;Batch" style="shadow=1;fillColor=#A2C4C9;strokeColor=none" vertex="1" parent="1">
          <mxGeometry x="952.5" y="60" width="105" height="50" as="geometry" />
        </mxCell>
        <mxCell id="33" value="" style="edgeStyle=elbowEdgeStyle;elbow=horizontal;endArrow=none;dashed=1" edge="1" parent="1" source="4" target="2">
          <mxGeometry x="230.00000000000003" y="310" width="100" height="100" as="geometry">
            <mxPoint x="230.00000000000003" y="410" as="sourcePoint" />
            <mxPoint x="330" y="310" as="targetPoint" />
          </mxGeometry>
        </mxCell>
        <mxCell id="34" value="validate()" style="edgeStyle=elbowEdgeStyle;elbow=vertical;verticalLabelPosition=top;verticalAlign=bottom" edge="1" parent="1">
          <mxGeometry x="550" y="261.7361111111111" width="100" height="100" as="geometry">
            <mxPoint x="680" y="291.1304012345679" as="sourcePoint" />
            <mxPoint x="797.4999999999999" y="291.1304012345679" as="targetPoint" />
            <Array as="points" />
          </mxGeometry>
        </mxCell>
        <mxCell id="35" value="errors" style="edgeStyle=elbowEdgeStyle;elbow=vertical;dashed=1;verticalLabelPosition=bottom;verticalAlign=top" edge="1" parent="1">
          <mxGeometry x="560" y="309.65277777777777" width="100" height="100" as="geometry">
            <mxPoint x="797.4999999999999" y="329.0470679012346" as="sourcePoint" />
            <mxPoint x="680" y="329.0470679012346" as="targetPoint" />
            <Array as="points" />
          </mxGeometry>
        </mxCell>
        <mxCell id="38" value="" style="edgeStyle=elbowEdgeStyle;elbow=horizontal;endArrow=none;dashed=1" edge="1" parent="1">
          <mxGeometry x="932.2588734567901" y="240" width="100" height="100" as="geometry">
            <mxPoint x="802.2588734567901" y="329.3942901234568" as="sourcePoint" />
            <mxPoint x="802.2588734567901" y="370" as="targetPoint" />
            <Array as="points">
              <mxPoint x="802.2588734567901" y="350" />
            </Array>
          </mxGeometry>
        </mxCell>
        <mxCell id="39" value="" style="ellipse;fillColor=none" vertex="1" parent="1">
          <mxGeometry x="802.5000000000001" y="304.3942901234568" width="9.999999999999886" height="10" as="geometry" />
        </mxCell>
        <mxCell id="40" value=" - user&#xa; validation&#xa;&#xa; - password check" style="shape=note;align=left" vertex="1" parent="1">
          <mxGeometry x="829.9729938271605" y="180.17361111111111" width="120.02700617283949" height="109.82638888888889" as="geometry" />
        </mxCell>
        <mxCell id="41" value="" style="edgeStyle=none;endArrow=none;dashed=1" edge="1" parent="1" source="40" target="39">
          <mxGeometry x="1030" y="180" width="100" height="100" as="geometry">
            <mxPoint x="1030" y="280" as="sourcePoint" />
            <mxPoint x="1130" y="180" as="targetPoint" />
          </mxGeometry>
        </mxCell>
        <mxCell id="42" value="" style="fillColor=#CC4125;strokeColor=#660000" vertex="1" parent="1">
          <mxGeometry x="200" y="360" width="10" height="220" as="geometry" />
        </mxCell>
        <mxCell id="43" value="             &lt;&lt;callback&gt;&gt;                                " style="edgeStyle=elbowEdgeStyle;elbow=vertical;dashed=0;verticalLabelPosition=top;verticalAlign=bottom;align=right" edge="1" parent="1" source="17" target="42">
          <mxGeometry x="190" y="329.75887345679007" width="100" height="100" as="geometry">
            <mxPoint x="500" y="310" as="sourcePoint" />
            <mxPoint x="220" y="370" as="targetPoint" />
            <Array as="points" />
          </mxGeometry>
        </mxCell>
        <mxCell id="44" value="" style="edgeStyle=none;dashed=1;endArrow=none" edge="1" parent="1" source="2" target="42">
          <mxGeometry x="50" y="300" width="100" height="100" as="geometry">
            <mxPoint x="50" y="400" as="sourcePoint" />
            <mxPoint x="150" y="300" as="targetPoint" />
          </mxGeometry>
        </mxCell>
        <mxCell id="46" value="" style="edgeStyle=elbowEdgeStyle;elbow=vertical;endArrow=none" edge="1" parent="1" source="42">
          <mxGeometry x="60" y="310" width="100" height="100" as="geometry">
            <mxPoint x="60" y="410" as="sourcePoint" />
            <mxPoint x="150" y="360" as="targetPoint" />
          </mxGeometry>
        </mxCell>
        <mxCell id="47" value="{100..600ms}" style="edgeStyle=elbowEdgeStyle;elbow=horizontal;startArrow=open;endArrow=open;labelPosition=left;align=right" edge="1" parent="1">
          <mxGeometry x="61.20563271604938" y="290" width="100" height="100" as="geometry">
            <mxPoint x="181.20563271604937" y="280" as="sourcePoint" />
            <mxPoint x="181.20563271604937" y="360" as="targetPoint" />
          </mxGeometry>
        </mxCell>
        <mxCell id="48" value="" style="fillColor=#CC4125;strokeColor=#660000" vertex="1" parent="1">
          <mxGeometry x="342.5" y="464.1666666666667" width="10" height="95.83333333333331" as="geometry" />
        </mxCell>
        <mxCell id="49" value="" style="fillColor=#CC4125;strokeColor=#660000" vertex="1" parent="1">
          <mxGeometry x="1000" y="468.3333333333333" width="10" height="81.66666666666669" as="geometry" />
        </mxCell>
        <mxCell id="50" value="" style="edgeStyle=none;endArrow=none;dashed=1" edge="1" parent="1" source="30" target="49">
          <mxGeometry x="956.5711805555559" y="205" width="100" height="100" as="geometry">
            <mxPoint x="1031.7361111111113" y="150" as="sourcePoint" />
            <mxPoint x="1031.7361111111113" y="329.3942901234568" as="targetPoint" />
          </mxGeometry>
        </mxCell>
        <mxCell id="51" value="post_comments()" style="edgeStyle=elbowEdgeStyle;elbow=vertical;verticalLabelPosition=top;verticalAlign=bottom" edge="1" parent="1">
          <mxGeometry x="212.5" y="469.58333333333337" width="100" height="100" as="geometry">
            <mxPoint x="210" y="469.58333333333337" as="sourcePoint" />
            <mxPoint x="342.5" y="469.58333333333337" as="targetPoint" />
            <Array as="points" />
          </mxGeometry>
        </mxCell>
        <mxCell id="52" value="" style="edgeStyle=none;endArrow=none;dashed=1" edge="1" parent="1" source="6" target="48">
          <mxGeometry x="376.5711805555559" y="339.6971450617284" width="100" height="100" as="geometry">
            <mxPoint x="451.7361111111112" y="284.6971450617284" as="sourcePoint" />
            <mxPoint x="451.7361111111112" y="464.0914351851852" as="targetPoint" />
          </mxGeometry>
        </mxCell>
        <mxCell id="53" value="BeginRequest()" style="edgeStyle=elbowEdgeStyle;elbow=vertical;verticalLabelPosition=top;verticalAlign=bottom" edge="1" parent="1">
          <mxGeometry x="530" y="436.8055555555556" width="100" height="100" as="geometry">
            <mxPoint x="352.5" y="477.56944444444446" as="sourcePoint" />
            <mxPoint x="1000" y="477.56944444444446" as="targetPoint" />
            <Array as="points" />
          </mxGeometry>
        </mxCell>
        <mxCell id="54" value="" style="edgeStyle=elbowEdgeStyle;elbow=vertical;dashed=1;verticalLabelPosition=bottom;verticalAlign=top" edge="1" parent="1">
          <mxGeometry x="530" y="549.0779320987654" width="100" height="100" as="geometry">
            <mxPoint x="1000" y="541.7361111111111" as="sourcePoint" />
            <mxPoint x="352.49999999999994" y="541.7361111111111" as="targetPoint" />
            <Array as="points" />
          </mxGeometry>
        </mxCell>
        <mxCell id="55" value="&lt;&lt;javascript&gt;&gt;&#xa;:Proxy" style="shadow=1;fillColor=#A2C4C9;strokeColor=none" vertex="1" parent="1">
          <mxGeometry x="1090" y="462.08333333333337" width="105" height="50" as="geometry" />
        </mxCell>
        <mxCell id="56" value="" style="edgeStyle=none;endArrow=none;dashed=1" edge="1" parent="1" source="55" target="57">
          <mxGeometry x="1204.0711805555559" y="380.08680555555554" width="100" height="100" as="geometry">
            <mxPoint x="1279.2361111111113" y="325.08680555555554" as="sourcePoint" />
            <mxPoint x="1350" y="445.08680555555554" as="targetPoint" />
          </mxGeometry>
        </mxCell>
        <mxCell id="57" value="" style="fillColor=#CC4125;strokeColor=#660000" vertex="1" parent="1">
          <mxGeometry x="1137.5" y="530" width="10" height="90" as="geometry" />
        </mxCell>
        <mxCell id="58" value="" style="fillColor=#CC4125;strokeColor=#660000" vertex="1" parent="1">
          <mxGeometry x="1350" y="540" width="10" height="70" as="geometry" />
        </mxCell>
        <mxCell id="60" value="&lt;&lt;create&gt;&gt;" style="edgeStyle=elbowEdgeStyle;elbow=vertical;verticalLabelPosition=top;verticalAlign=bottom;dashed=1" edge="1" parent="1" source="49" target="55">
          <mxGeometry x="901.25" y="322.5" width="100" height="100" as="geometry">
            <mxPoint x="1031.25" y="351.8942901234568" as="sourcePoint" />
            <mxPoint x="1148.75" y="351.8942901234568" as="targetPoint" />
            <Array as="points" />
          </mxGeometry>
        </mxCell>
        <mxCell id="61" value="&lt;&lt;ajax&gt;&gt;" style="edgeStyle=elbowEdgeStyle;elbow=vertical;verticalLabelPosition=top;verticalAlign=bottom" edge="1" parent="1" source="49" target="57">
          <mxGeometry x="1065" y="359.5" width="100" height="100" as="geometry">
            <mxPoint x="1044.7839506172838" y="359.5" as="sourcePoint" />
            <mxPoint x="1195" y="359.5" as="targetPoint" />
            <Array as="points" />
          </mxGeometry>
        </mxCell>
        <mxCell id="62" value="postComments()" style="edgeStyle=elbowEdgeStyle;elbow=vertical;verticalLabelPosition=top;verticalAlign=bottom" edge="1" parent="1">
          <mxGeometry x="1225" y="309.5" width="100" height="100" as="geometry">
            <mxPoint x="1147.5" y="542.5" as="sourcePoint" />
            <mxPoint x="1350" y="542.5" as="targetPoint" />
            <Array as="points" />
          </mxGeometry>
        </mxCell>
        <mxCell id="63" value="&lt;&lt;json&gt;&gt;" style="edgeStyle=elbowEdgeStyle;elbow=vertical;dashed=1;verticalLabelPosition=bottom;verticalAlign=top" edge="1" parent="1">
          <mxGeometry x="1075" y="396" width="100" height="100" as="geometry">
            <mxPoint x="1350" y="606.5" as="sourcePoint" />
            <mxPoint x="1147.5" y="606.5" as="targetPoint" />
            <Array as="points" />
          </mxGeometry>
        </mxCell>
        <mxCell id="64" value="&lt;&lt;service&gt;&gt;&#xa;:GimqService" style="shadow=1;fillColor=#A2C4C9;strokeColor=none" vertex="1" parent="1">
          <mxGeometry x="1302.5" y="60" width="105" height="50" as="geometry" />
        </mxCell>
        <mxCell id="65" value="" style="edgeStyle=none;endArrow=none;dashed=1" edge="1" parent="1" source="64" target="58">
          <mxGeometry x="1174.0711805555559" y="210" width="100" height="100" as="geometry">
            <mxPoint x="1222.5" y="115" as="sourcePoint" />
            <mxPoint x="1222.5" y="445" as="targetPoint" />
          </mxGeometry>
        </mxCell>
        <mxCell id="66" value="" style="fillColor=#CC4125;strokeColor=#660000" vertex="1" parent="1">
          <mxGeometry x="200" y="600" width="10" height="130" as="geometry" />
        </mxCell>
        <mxCell id="67" value="" style="edgeStyle=elbowEdgeStyle;elbow=vertical;dashed=1;verticalLabelPosition=bottom;verticalAlign=top" edge="1" parent="1">
          <mxGeometry x="507.50000000000006" y="664.3418209876543" width="100" height="100" as="geometry">
            <mxPoint x="342.5" y="549.5" as="sourcePoint" />
            <mxPoint x="210" y="549.5" as="targetPoint" />
            <Array as="points" />
          </mxGeometry>
        </mxCell>
        <mxCell id="68" value="&lt;&lt;callback&gt;&gt;" style="edgeStyle=elbowEdgeStyle;elbow=vertical;dashed=1;verticalLabelPosition=bottom;verticalAlign=bottom" edge="1" parent="1" source="57" target="66">
          <mxGeometry x="540" y="559.0779320987654" width="100" height="100" as="geometry">
            <mxPoint x="1010" y="551.7361111111111" as="sourcePoint" />
            <mxPoint x="362.49999999999994" y="551.7361111111111" as="targetPoint" />
            <Array as="points" />
          </mxGeometry>
        </mxCell>
        <mxCell id="71" value="rt submit_changes" style="rounded=1;fontStyle=1;fillColor=#FFD966;strokeColor=none" vertex="1" parent="1">
          <mxGeometry x="50" y="20" width="150" height="30" as="geometry" />
        </mxCell>
        <mxCell id="72" value="opt" style="rounded=1;fontStyle=1;fillColor=#FFD966;strokeColor=none" vertex="1" parent="1">
          <mxGeometry x="152.5" y="420" width="87.5" height="30" as="geometry" />
        </mxCell>
        <mxCell id="74" value="Handle errors from Gimq" style="fillColor=#BFC8DB" vertex="1" parent="1">
          <mxGeometry x="190" y="625" width="310" height="60.55555555555554" as="geometry" />
        </mxCell>
        <mxCell id="75" value="ref" style="rounded=1;fontStyle=1;fillColor=#FFD966;strokeColor=none" vertex="1" parent="1">
          <mxGeometry x="196.25" y="632.8935185185186" width="53.75" height="25" as="geometry" />
        </mxCell>
        <mxCell id="76" value="" style="align=left;fillColor=#BFC8DB" vertex="1" parent="1">
          <mxGeometry x="189.99999999999997" y="699.7222222222223" width="1201.1944444444443" height="60.55555555555554" as="geometry" />
        </mxCell>
        <mxCell id="77" value="ref" style="rounded=1;fontStyle=1;fillColor=#FFD966;strokeColor=none" vertex="1" parent="1">
          <mxGeometry x="196.24999999999997" y="707.6157407407409" width="53.75" height="25" as="geometry" />
        </mxCell>
        <mxCell id="78" value="Request all changes" style="text;align=left" vertex="1" parent="1">
          <mxGeometry x="268.05555555555554" y="720.1157407407408" width="351.80555555555554" height="26" as="geometry" />
        </mxCell>
        <mxCell id="82" value="" style="edgeStyle=elbowEdgeStyle;elbow=vertical;endArrow=none" edge="1" parent="1">
          <mxGeometry x="59.999999999999986" y="419.7106481481482" width="100" height="100" as="geometry">
            <mxPoint x="200" y="469.7106481481482" as="sourcePoint" />
            <mxPoint x="149.99999999999997" y="469.7106481481482" as="targetPoint" />
          </mxGeometry>
        </mxCell>
        <mxCell id="83" value="" style="edgeStyle=elbowEdgeStyle;elbow=vertical;endArrow=none" edge="1" parent="1">
          <mxGeometry x="60" y="499.71064814814815" width="100" height="100" as="geometry">
            <mxPoint x="200.00000000000003" y="549.7106481481482" as="sourcePoint" />
            <mxPoint x="150" y="549.7106481481482" as="targetPoint" />
          </mxGeometry>
        </mxCell>
        <mxCell id="84" value="" style="edgeStyle=elbowEdgeStyle;elbow=vertical;endArrow=none" edge="1" parent="1">
          <mxGeometry x="59.999999999999986" y="559.7106481481482" width="100" height="100" as="geometry">
            <mxPoint x="200" y="609.7106481481482" as="sourcePoint" />
            <mxPoint x="149.99999999999997" y="609.7106481481482" as="targetPoint" />
          </mxGeometry>
        </mxCell>
        <mxCell id="85" value="" style="edgeStyle=elbowEdgeStyle;elbow=vertical;endArrow=none" edge="1" parent="1">
          <mxGeometry x="49.99999999999999" y="649.4328703703704" width="100" height="100" as="geometry">
            <mxPoint x="190.00000000000003" y="699.4328703703704" as="sourcePoint" />
            <mxPoint x="140" y="699.4328703703704" as="targetPoint" />
          </mxGeometry>
        </mxCell>
        <mxCell id="86" value="" style="edgeStyle=elbowEdgeStyle;elbow=vertical;endArrow=none" edge="1" parent="1">
          <mxGeometry x="49.99999999999993" y="709.9884259259259" width="100" height="100" as="geometry">
            <mxPoint x="189.99999999999994" y="759.9884259259259" as="sourcePoint" />
            <mxPoint x="139.99999999999994" y="759.9884259259259" as="targetPoint" />
          </mxGeometry>
        </mxCell>
        <mxCell id="87" value="{5..50ms}" style="edgeStyle=elbowEdgeStyle;elbow=horizontal;startArrow=open;endArrow=open;labelPosition=left;align=right" edge="1" parent="1">
          <mxGeometry x="41.44675925925927" y="479.1666666666667" width="100" height="100" as="geometry">
            <mxPoint x="161.44675925925927" y="469.1666666666667" as="sourcePoint" />
            <mxPoint x="161.44675925925927" y="549.1666666666667" as="targetPoint" />
          </mxGeometry>
        </mxCell>
        <mxCell id="88" value="{1..500ms}" style="edgeStyle=elbowEdgeStyle;elbow=horizontal;startArrow=open;endArrow=open;labelPosition=left;align=right" edge="1" parent="1">
          <mxGeometry x="42.89351851851853" y="560" width="100" height="100" as="geometry">
            <mxPoint x="161.44675925925927" y="550" as="sourcePoint" />
            <mxPoint x="161.44675925925927" y="610" as="targetPoint" />
          </mxGeometry>
        </mxCell>
        <mxCell id="89" value="{10..50ms}" style="edgeStyle=elbowEdgeStyle;elbow=horizontal;startArrow=open;endArrow=open;labelPosition=left;align=right" edge="1" parent="1">
          <mxGeometry width="100" height="100" as="geometry">
            <mxPoint x="153.94675925925927" y="700.2777777777778" as="sourcePoint" />
            <mxPoint x="153.94675925925927" y="760.2777777777778" as="targetPoint" />
            <mxPoint x="-4.236111111111107" y="-0.2777777777777883" as="offset" />
          </mxGeometry>
        </mxCell>
        <mxCell id="7IJhegVJwyjGZeuGlklH-90" value="" style="fillColor=#DEE8FF;strokeColor=none" vertex="1" parent="1">
          <mxGeometry x="1920" y="-1070" width="1420" height="1040" as="geometry" />
        </mxCell>
        <mxCell id="fJhtqas4xELgrQAFewu7-89" value="User" style="shape=umlActor;verticalLabelPosition=bottom;verticalAlign=top;html=1;outlineConnect=0;" vertex="1" parent="1">
          <mxGeometry x="1980" y="123" width="30" height="60" as="geometry" />
        </mxCell>
        <mxCell id="fJhtqas4xELgrQAFewu7-92" value="" style="edgeStyle=none;endArrow=none;dashed=1" edge="1" parent="1">
          <mxGeometry x="272.3350694444445" y="165" width="100" height="100" as="geometry">
            <mxPoint x="1995.58" y="205" as="sourcePoint" />
            <mxPoint x="1996" y="1420" as="targetPoint" />
          </mxGeometry>
        </mxCell>
        <mxCell id="fJhtqas4xELgrQAFewu7-100" value="Click Login" style="edgeStyle=none;verticalLabelPosition=top;verticalAlign=bottom;labelPosition=left;align=right" edge="1" parent="1">
          <mxGeometry width="100" height="100" as="geometry">
            <mxPoint x="2000" y="220" as="sourcePoint" />
            <mxPoint x="2180" y="219.5" as="targetPoint" />
            <mxPoint as="offset" />
          </mxGeometry>
        </mxCell>
        <mxCell id="fJhtqas4xELgrQAFewu7-101" value="Browser" style="shadow=1;fillColor=#A2C4C9;strokeColor=none" vertex="1" parent="1">
          <mxGeometry x="2132.5" y="130" width="105" height="50" as="geometry" />
        </mxCell>
        <mxCell id="fJhtqas4xELgrQAFewu7-102" value="Server&#xa;emaily.com" style="shadow=1;fillColor=#A2C4C9;strokeColor=none" vertex="1" parent="1">
          <mxGeometry x="2330" y="130" width="105" height="50" as="geometry" />
        </mxCell>
        <mxCell id="fJhtqas4xELgrQAFewu7-104" value="GET /auth/google" style="edgeStyle=none;verticalLabelPosition=top;verticalAlign=bottom" edge="1" parent="1">
          <mxGeometry x="220" y="92" width="100" height="100" as="geometry">
            <mxPoint x="2190" y="249.5" as="sourcePoint" />
            <mxPoint x="2380" y="250" as="targetPoint" />
          </mxGeometry>
        </mxCell>
        <mxCell id="fJhtqas4xELgrQAFewu7-105" value="Google" style="shadow=1;fillColor=#A2C4C9;strokeColor=none" vertex="1" parent="1">
          <mxGeometry x="2530.003950617284" y="129.99999999999997" width="105" height="50" as="geometry" />
        </mxCell>
        <mxCell id="fJhtqas4xELgrQAFewu7-109" value="OAuth Flow - Production" style="rounded=1;fontStyle=1;fillColor=#FFD966;strokeColor=none" vertex="1" parent="1">
          <mxGeometry x="1950" y="42" width="150" height="30" as="geometry" />
        </mxCell>
        <mxCell id="fJhtqas4xELgrQAFewu7-114" value="302 https://accounts.google.com/o/oauth2/v2/auth?appId=123" style="edgeStyle=none;verticalLabelPosition=top;verticalAlign=bottom;startArrow=classic;startFill=1;endArrow=none;endFill=0;dashed=1;" edge="1" parent="1">
          <mxGeometry width="100" height="100" as="geometry">
            <mxPoint x="2190" y="274.7" as="sourcePoint" />
            <mxPoint x="2380" y="275" as="targetPoint" />
            <mxPoint as="offset" />
          </mxGeometry>
        </mxCell>
        <mxCell id="fJhtqas4xELgrQAFewu7-115" value="GET https://accounts.google.com/o/oauth2/v2/auth?appId=123" style="edgeStyle=none;verticalLabelPosition=top;verticalAlign=bottom" edge="1" parent="1">
          <mxGeometry width="100" height="100" as="geometry">
            <mxPoint x="2190" y="305.39" as="sourcePoint" />
            <mxPoint x="2570" y="306" as="targetPoint" />
            <mxPoint as="offset" />
          </mxGeometry>
        </mxCell>
        <mxCell id="fJhtqas4xELgrQAFewu7-116" value="200" style="edgeStyle=none;verticalLabelPosition=top;verticalAlign=bottom;startArrow=classic;startFill=1;endArrow=none;endFill=0;dashed=1;" edge="1" parent="1">
          <mxGeometry width="100" height="100" as="geometry">
            <mxPoint x="2192.5" y="723.39" as="sourcePoint" />
            <mxPoint x="2572.5" y="723.39" as="targetPoint" />
            <mxPoint as="offset" />
          </mxGeometry>
        </mxCell>
        <mxCell id="fJhtqas4xELgrQAFewu7-117" value="Proceed to Authorize" style="edgeStyle=none;verticalLabelPosition=top;verticalAlign=bottom;labelPosition=left;align=right" edge="1" parent="1">
          <mxGeometry width="100" height="100" as="geometry">
            <mxPoint x="2000" y="487" as="sourcePoint" />
            <mxPoint x="2180" y="487.39" as="targetPoint" />
            <mxPoint x="30" as="offset" />
          </mxGeometry>
        </mxCell>
        <mxCell id="fJhtqas4xELgrQAFewu7-119" value="GET https://accounts.google.com/signin/oauth/consent" style="edgeStyle=none;verticalLabelPosition=top;verticalAlign=bottom" edge="1" parent="1">
          <mxGeometry width="100" height="100" as="geometry">
            <mxPoint x="2190" y="772.39" as="sourcePoint" />
            <mxPoint x="2570" y="773" as="targetPoint" />
            <mxPoint as="offset" />
          </mxGeometry>
        </mxCell>
        <mxCell id="fJhtqas4xELgrQAFewu7-120" value="302 /auth/google/callback?code=456" style="edgeStyle=none;verticalLabelPosition=top;verticalAlign=bottom;startArrow=classic;startFill=1;endArrow=none;endFill=0;dashed=1;" edge="1" parent="1">
          <mxGeometry width="100" height="100" as="geometry">
            <mxPoint x="2192.5" y="792.39" as="sourcePoint" />
            <mxPoint x="2572.5" y="792.39" as="targetPoint" />
            <mxPoint as="offset" />
          </mxGeometry>
        </mxCell>
        <mxCell id="fJhtqas4xELgrQAFewu7-121" value="GET /auth/google/callback?code=456" style="edgeStyle=none;verticalLabelPosition=top;verticalAlign=bottom" edge="1" parent="1">
          <mxGeometry width="100" height="100" as="geometry">
            <mxPoint x="2192.5" y="833" as="sourcePoint" />
            <mxPoint x="2380" y="833" as="targetPoint" />
            <mxPoint as="offset" />
          </mxGeometry>
        </mxCell>
        <mxCell id="fJhtqas4xELgrQAFewu7-123" value="302 /&#xa;Set-Cookie: serializedUser" style="edgeStyle=none;verticalLabelPosition=top;verticalAlign=bottom;startArrow=classic;startFill=1;endArrow=none;endFill=0;dashed=1;" edge="1" parent="1">
          <mxGeometry width="100" height="100" as="geometry">
            <mxPoint x="2190" y="1217.33" as="sourcePoint" />
            <mxPoint x="2380" y="1217.63" as="targetPoint" />
            <mxPoint as="offset" />
          </mxGeometry>
        </mxCell>
        <mxCell id="fJhtqas4xELgrQAFewu7-125" value="GET /&#xa;Cookie: user" style="edgeStyle=none;verticalLabelPosition=top;verticalAlign=bottom" edge="1" parent="1">
          <mxGeometry width="100" height="100" as="geometry">
            <mxPoint x="2192.5" y="1261" as="sourcePoint" />
            <mxPoint x="2380" y="1261" as="targetPoint" />
            <mxPoint as="offset" />
          </mxGeometry>
        </mxCell>
        <mxCell id="fJhtqas4xELgrQAFewu7-126" value="200" style="edgeStyle=none;verticalLabelPosition=top;verticalAlign=bottom;startArrow=classic;startFill=1;endArrow=none;endFill=0;dashed=1;" edge="1" parent="1">
          <mxGeometry width="100" height="100" as="geometry">
            <mxPoint x="2190" y="1281.33" as="sourcePoint" />
            <mxPoint x="2380" y="1281.63" as="targetPoint" />
            <mxPoint as="offset" />
          </mxGeometry>
        </mxCell>
        <mxCell id="fJhtqas4xELgrQAFewu7-131" value="" style="group" connectable="0" vertex="1" parent="1">
          <mxGeometry x="2073.5" y="552.39" width="800" height="830" as="geometry" />
        </mxCell>
        <mxCell id="fJhtqas4xELgrQAFewu7-127" value="alt" style="shape=umlFrame;whiteSpace=wrap;html=1;pointerEvents=0;" vertex="1" parent="fJhtqas4xELgrQAFewu7-131">
          <mxGeometry width="800" height="830" as="geometry" />
        </mxCell>
        <mxCell id="fJhtqas4xELgrQAFewu7-128" value="[not authorized]" style="text;strokeColor=none;align=center;fillColor=none;html=1;verticalAlign=middle;whiteSpace=wrap;rounded=0;" vertex="1" parent="fJhtqas4xELgrQAFewu7-131">
          <mxGeometry x="10" y="28.86964497744004" width="90" height="39.237413915934454" as="geometry" />
        </mxCell>
        <mxCell id="fJhtqas4xELgrQAFewu7-129" value="[authorized]" style="text;strokeColor=none;align=center;fillColor=none;html=1;verticalAlign=middle;whiteSpace=wrap;rounded=0;" vertex="1" parent="fJhtqas4xELgrQAFewu7-131">
          <mxGeometry x="6" y="116.66390406079319" width="90" height="39.237413915934454" as="geometry" />
        </mxCell>
        <mxCell id="fJhtqas4xELgrQAFewu7-130" value="" style="edgeStyle=none;orthogonalLoop=1;jettySize=auto;html=1;rounded=0;exitX=0.001;exitY=0.434;exitDx=0;exitDy=0;exitPerimeter=0;entryX=1;entryY=0.435;entryDx=0;entryDy=0;entryPerimeter=0;endArrow=none;endFill=0;dashed=1;" edge="1" parent="fJhtqas4xELgrQAFewu7-131">
          <mxGeometry width="80" relative="1" as="geometry">
            <mxPoint x="0.5200000000004366" y="115.22474" as="sourcePoint" />
            <mxPoint x="520.0000000000005" y="115.6653500000001" as="targetPoint" />
            <Array as="points" />
          </mxGeometry>
        </mxCell>
        <mxCell id="fJhtqas4xELgrQAFewu7-132" value="302 https://accounts.google.com/signin/oauth/error" style="edgeStyle=none;verticalLabelPosition=top;verticalAlign=bottom;startArrow=classic;startFill=1;endArrow=none;endFill=0;dashed=1;" edge="1" parent="1">
          <mxGeometry width="100" height="100" as="geometry">
            <mxPoint x="2192.5" y="630.39" as="sourcePoint" />
            <mxPoint x="2572.5" y="630.39" as="targetPoint" />
            <mxPoint as="offset" />
          </mxGeometry>
        </mxCell>
        <mxCell id="fJhtqas4xELgrQAFewu7-134" value="200" style="edgeStyle=none;verticalLabelPosition=top;verticalAlign=bottom;startArrow=classic;startFill=1;endArrow=none;endFill=0;dashed=1;" edge="1" parent="1">
          <mxGeometry width="100" height="100" as="geometry">
            <mxPoint x="2192.5" y="435.39" as="sourcePoint" />
            <mxPoint x="2572.5" y="435.39" as="targetPoint" />
            <mxPoint as="offset" />
          </mxGeometry>
        </mxCell>
        <mxCell id="fJhtqas4xELgrQAFewu7-135" value="POST https://accounts.google.com/_/signin/oauth?authuser=0&amp;hl=en&amp;_reqid=30449&amp;rt=j" style="edgeStyle=none;verticalLabelPosition=top;verticalAlign=bottom" edge="1" parent="1">
          <mxGeometry width="100" height="100" as="geometry">
            <mxPoint x="2190" y="518.39" as="sourcePoint" />
            <mxPoint x="2570" y="519" as="targetPoint" />
            <mxPoint as="offset" />
          </mxGeometry>
        </mxCell>
        <mxCell id="fJhtqas4xELgrQAFewu7-136" value="response_type=code&amp;&#xa;redirect_uri=http%3A%2F%2Flocalhost%3A3000%2Fauth%2Fgoogle%2Fcallback&amp;&#xa;scope=profile%20email&amp;&#xa;client_id=1023397640044-09u6huf71312ui2psn12u1l9lpgn5qqo.apps.googleusercontent.com" style="shape=note;align=left;fontSize=8;" vertex="1" parent="1">
          <mxGeometry x="2610" y="230" width="360" height="64.39" as="geometry" />
        </mxCell>
        <mxCell id="fJhtqas4xELgrQAFewu7-138" value="" style="edgeStyle=none;endArrow=none;dashed=1;exitX=0;exitY=0;exitDx=0;exitDy=0;exitPerimeter=0;" edge="1" parent="1" source="fJhtqas4xELgrQAFewu7-136">
          <mxGeometry x="1030" y="180" width="100" height="100" as="geometry">
            <mxPoint x="2634.9999999999995" y="383" as="sourcePoint" />
            <mxPoint x="2540" y="290" as="targetPoint" />
          </mxGeometry>
        </mxCell>
        <mxCell id="fJhtqas4xELgrQAFewu7-141" value="" style="edgeStyle=none;endArrow=none;dashed=1;exitX=0;exitY=0;exitDx=0;exitDy=0;exitPerimeter=0;" edge="1" parent="1" source="fJhtqas4xELgrQAFewu7-140">
          <mxGeometry x="1030" y="180" width="100" height="100" as="geometry">
            <mxPoint x="2620" y="373" as="sourcePoint" />
            <mxPoint x="2550" y="493" as="targetPoint" />
          </mxGeometry>
        </mxCell>
        <mxCell id="N5uU4mFCL11VOM-04r9--89" value="" style="group" connectable="0" vertex="1" parent="1">
          <mxGeometry x="2035" y="322" width="1285" height="1308" as="geometry" />
        </mxCell>
        <mxCell id="N5uU4mFCL11VOM-04r9--90" value="alt" style="shape=umlFrame;whiteSpace=wrap;html=1;pointerEvents=0;" vertex="1" parent="N5uU4mFCL11VOM-04r9--89">
          <mxGeometry width="870" height="1110" as="geometry" />
        </mxCell>
        <mxCell id="N5uU4mFCL11VOM-04r9--91" value="[app wrongly configured]" style="text;strokeColor=none;align=center;fillColor=none;html=1;verticalAlign=middle;whiteSpace=wrap;rounded=0;" vertex="1" parent="N5uU4mFCL11VOM-04r9--89">
          <mxGeometry x="-5.403846153846153" y="34.66" width="176.34615384615384" height="14.07" as="geometry" />
        </mxCell>
        <mxCell id="N5uU4mFCL11VOM-04r9--92" value="[app well configured]" style="text;strokeColor=none;align=center;fillColor=none;html=1;verticalAlign=middle;whiteSpace=wrap;rounded=0;" vertex="1" parent="N5uU4mFCL11VOM-04r9--89">
          <mxGeometry x="-17.442307692307693" y="82.45" width="181.3846153846154" height="14.07" as="geometry" />
        </mxCell>
        <mxCell id="N5uU4mFCL11VOM-04r9--93" value="" style="edgeStyle=none;orthogonalLoop=1;jettySize=auto;html=1;rounded=0;exitX=0.001;exitY=0.434;exitDx=0;exitDy=0;exitPerimeter=0;entryX=1;entryY=0.435;entryDx=0;entryDy=0;entryPerimeter=0;endArrow=none;endFill=0;dashed=1;" edge="1" parent="N5uU4mFCL11VOM-04r9--89">
          <mxGeometry width="80" relative="1" as="geometry">
            <mxPoint x="0.6550000000005499" y="72.2281879381507" as="sourcePoint" />
            <mxPoint x="655.0000000000006" y="72.38618793815073" as="targetPoint" />
            <Array as="points" />
          </mxGeometry>
        </mxCell>
        <mxCell id="GrdWmYsmaMmW8INdCoOV-91" value="" style="group" connectable="0" vertex="1" parent="N5uU4mFCL11VOM-04r9--89">
          <mxGeometry x="58" y="615" width="712" height="700" as="geometry" />
        </mxCell>
        <mxCell id="GrdWmYsmaMmW8INdCoOV-92" value="alt" style="shape=umlFrame;whiteSpace=wrap;html=1;pointerEvents=0;" vertex="1" parent="GrdWmYsmaMmW8INdCoOV-91">
          <mxGeometry width="712" height="170" as="geometry" />
        </mxCell>
        <mxCell id="GrdWmYsmaMmW8INdCoOV-93" value="[user not found]" style="text;strokeColor=none;align=center;fillColor=none;html=1;verticalAlign=middle;whiteSpace=wrap;rounded=0;" vertex="1" parent="GrdWmYsmaMmW8INdCoOV-91">
          <mxGeometry x="12.49122807017544" y="28.86964497744004" width="112.42105263157896" height="39.237413915934454" as="geometry" />
        </mxCell>
        <mxCell id="GrdWmYsmaMmW8INdCoOV-94" value="[user found]" style="text;strokeColor=none;align=center;fillColor=none;html=1;verticalAlign=middle;whiteSpace=wrap;rounded=0;" vertex="1" parent="GrdWmYsmaMmW8INdCoOV-91">
          <mxGeometry x="7.494736842105263" y="116.66390406079319" width="112.42105263157896" height="39.237413915934454" as="geometry" />
        </mxCell>
        <mxCell id="GrdWmYsmaMmW8INdCoOV-95" value="" style="edgeStyle=none;orthogonalLoop=1;jettySize=auto;html=1;rounded=0;exitX=0.001;exitY=0.434;exitDx=0;exitDy=0;exitPerimeter=0;entryX=1;entryY=0.435;entryDx=0;entryDy=0;entryPerimeter=0;endArrow=none;endFill=0;dashed=1;" edge="1" parent="GrdWmYsmaMmW8INdCoOV-91">
          <mxGeometry width="80" relative="1" as="geometry">
            <mxPoint x="0.6495438596496682" y="115.22474" as="sourcePoint" />
            <mxPoint x="649.5438596491234" y="115.6653500000001" as="targetPoint" />
            <Array as="points" />
          </mxGeometry>
        </mxCell>
        <mxCell id="fJhtqas4xELgrQAFewu7-108" value="" style="edgeStyle=elbowEdgeStyle;elbow=horizontal;endArrow=none;dashed=1" edge="1" parent="GrdWmYsmaMmW8INdCoOV-91">
          <mxGeometry x="-1863" y="-627" width="100" height="100" as="geometry">
            <mxPoint x="92" y="-737" as="sourcePoint" />
            <mxPoint x="92" y="-257" as="targetPoint" />
            <Array as="points">
              <mxPoint x="92" y="413" />
            </Array>
          </mxGeometry>
        </mxCell>
        <mxCell id="fJhtqas4xELgrQAFewu7-103" value="" style="edgeStyle=none;endArrow=none;dashed=1" edge="1" parent="GrdWmYsmaMmW8INdCoOV-91">
          <mxGeometry x="-1820.6649305555554" y="-772" width="100" height="100" as="geometry">
            <mxPoint x="289.4407582938388" y="-737" as="sourcePoint" />
            <mxPoint x="287" y="413" as="targetPoint" />
          </mxGeometry>
        </mxCell>
        <mxCell id="fJhtqas4xELgrQAFewu7-106" value="" style="edgeStyle=none;endArrow=none;dashed=1;" edge="1" parent="GrdWmYsmaMmW8INdCoOV-91">
          <mxGeometry x="-1655.957175925926" y="-667" width="100" height="100" as="geometry">
            <mxPoint x="489.51570534199254" y="-737" as="sourcePoint" />
            <mxPoint x="490" y="413" as="targetPoint" />
          </mxGeometry>
        </mxCell>
        <mxCell id="N5uU4mFCL11VOM-04r9--102" value="" style="edgeStyle=none;endArrow=none;dashed=1;" edge="1" parent="GrdWmYsmaMmW8INdCoOV-91">
          <mxGeometry x="-1655.957175925926" y="-667" width="100" height="100" as="geometry">
            <mxPoint x="679.5322071670648" y="-121.94000000000005" as="sourcePoint" />
            <mxPoint x="680" y="413" as="targetPoint" />
          </mxGeometry>
        </mxCell>
        <mxCell id="fJhtqas4xELgrQAFewu7-140" value="authuser: 0&#xa;_reqid: 30449&#xa;client_id: 1023397640044-09u6huf71312ui2psn12u1l9lpgn5qqo.apps.googleusercontent.com&#xa;o2v: 2&#xa;redirect_uri: http://localhost:3000/auth/google/callback&#xa;response_type: code&#xa;scope: profile email" style="shape=note;align=left;fontSize=8;" vertex="1" parent="N5uU4mFCL11VOM-04r9--89">
          <mxGeometry x="635" y="108" width="360" height="80" as="geometry" />
        </mxCell>
        <mxCell id="N5uU4mFCL11VOM-04r9--99" value="code=4%2F0Adeu5BUhbjyr8lB6119fWPpN0wLF8PAQZ01hfG2Cm049TIysXOB4GnJ-RCOu246NcgGeHg&amp;&#xa;scope=email+profile+https%3A%2F%2Fwww.googleapis.com%2Fauth%2Fuserinfo.profile+https%3A%2F%2Fwww.googleapis.com%2Fauth%2Fuserinfo.email+openid&amp;&#xa;authuser=0&amp;&#xa;prompt=consent" style="shape=note;align=left;fontSize=8;" vertex="1" parent="N5uU4mFCL11VOM-04r9--89">
          <mxGeometry x="645" y="328" width="640" height="52.11" as="geometry" />
        </mxCell>
        <mxCell id="N5uU4mFCL11VOM-04r9--97" value="302 https://accounts.google.com/signin/oauth/error" style="edgeStyle=none;verticalLabelPosition=top;verticalAlign=bottom;startArrow=classic;startFill=1;endArrow=none;endFill=0;dashed=1;" edge="1" parent="1">
          <mxGeometry x="-75" y="75.27272727272728" width="100" height="71.81818181818181" as="geometry">
            <mxPoint x="2192" y="380.0018181818182" as="sourcePoint" />
            <mxPoint x="2572" y="380.0018181818182" as="targetPoint" />
            <mxPoint as="offset" />
          </mxGeometry>
        </mxCell>
        <mxCell id="N5uU4mFCL11VOM-04r9--100" value="" style="edgeStyle=none;endArrow=none;dashed=1;exitX=0;exitY=0;exitDx=0;exitDy=0;exitPerimeter=0;" edge="1" parent="1" source="N5uU4mFCL11VOM-04r9--99">
          <mxGeometry x="1030" y="180" width="100" height="100" as="geometry">
            <mxPoint x="2720" y="430" as="sourcePoint" />
            <mxPoint x="2550" y="758" as="targetPoint" />
          </mxGeometry>
        </mxCell>
        <mxCell id="N5uU4mFCL11VOM-04r9--101" value="MongoDB" style="shadow=1;fillColor=#A2C4C9;strokeColor=none" vertex="1" parent="1">
          <mxGeometry x="2720.003950617284" y="746.12" width="105" height="50" as="geometry" />
        </mxCell>
        <mxCell id="N5uU4mFCL11VOM-04r9--103" value="users.insert(userInfo)" style="edgeStyle=none;verticalLabelPosition=top;verticalAlign=bottom" edge="1" parent="1">
          <mxGeometry width="100" height="100" as="geometry">
            <mxPoint x="2390" y="1001" as="sourcePoint" />
            <mxPoint x="2767.5" y="1001" as="targetPoint" />
            <mxPoint as="offset" />
          </mxGeometry>
        </mxCell>
        <mxCell id="N5uU4mFCL11VOM-04r9--104" value="GET https://accounts.google.com/userinfo?code=456" style="edgeStyle=none;verticalLabelPosition=top;verticalAlign=bottom" edge="1" parent="1">
          <mxGeometry width="100" height="100" as="geometry">
            <mxPoint x="2390" y="864" as="sourcePoint" />
            <mxPoint x="2570" y="865" as="targetPoint" />
            <mxPoint as="offset" />
          </mxGeometry>
        </mxCell>
        <mxCell id="N5uU4mFCL11VOM-04r9--105" value="200 { userInfo: ... }" style="edgeStyle=none;verticalLabelPosition=top;verticalAlign=bottom;startArrow=classic;startFill=1;endArrow=none;endFill=0;dashed=1;" edge="1" parent="1">
          <mxGeometry width="100" height="100" as="geometry">
            <mxPoint x="2390" y="886" as="sourcePoint" />
            <mxPoint x="2571.5" y="886.39" as="targetPoint" />
            <mxPoint as="offset" />
          </mxGeometry>
        </mxCell>
        <mxCell id="N5uU4mFCL11VOM-04r9--106" value="OK: user" style="edgeStyle=none;verticalLabelPosition=top;verticalAlign=bottom;startArrow=classic;startFill=1;endArrow=none;endFill=0;dashed=1;" edge="1" parent="1">
          <mxGeometry width="100" height="100" as="geometry">
            <mxPoint x="2391" y="1024" as="sourcePoint" />
            <mxPoint x="2770" y="1026" as="targetPoint" />
            <mxPoint as="offset" />
          </mxGeometry>
        </mxCell>
        <mxCell id="GrdWmYsmaMmW8INdCoOV-89" value="users.find(googleId: userInfo.id)" style="edgeStyle=none;verticalLabelPosition=top;verticalAlign=bottom" edge="1" parent="1">
          <mxGeometry width="100" height="100" as="geometry">
            <mxPoint x="2389" y="915" as="sourcePoint" />
            <mxPoint x="2766.5" y="915" as="targetPoint" />
            <mxPoint as="offset" />
          </mxGeometry>
        </mxCell>
        <mxCell id="GrdWmYsmaMmW8INdCoOV-90" value="User not found" style="edgeStyle=none;verticalLabelPosition=top;verticalAlign=bottom;startArrow=classic;startFill=1;endArrow=none;endFill=0;dashed=1;" edge="1" parent="1">
          <mxGeometry width="100" height="100" as="geometry">
            <mxPoint x="2390" y="967" as="sourcePoint" />
            <mxPoint x="2770" y="967" as="targetPoint" />
            <mxPoint as="offset" />
          </mxGeometry>
        </mxCell>
        <mxCell id="GrdWmYsmaMmW8INdCoOV-97" value="User found: user" style="edgeStyle=none;verticalLabelPosition=top;verticalAlign=bottom;startArrow=classic;startFill=1;endArrow=none;endFill=0;dashed=1;" edge="1" parent="1">
          <mxGeometry width="100" height="100" as="geometry">
            <mxPoint x="2389" y="1083" as="sourcePoint" />
            <mxPoint x="2769" y="1083" as="targetPoint" />
            <mxPoint as="offset" />
          </mxGeometry>
        </mxCell>
        <mxCell id="rUAOn_QgItGxSgmDU4VE-91" value="" style="html=1;points=[[0,0,0,0,5],[0,1,0,0,-5],[1,0,0,0,5],[1,1,0,0,-5]];perimeter=orthogonalPerimeter;outlineConnect=0;targetShapes=umlLifeline;portConstraint=eastwest;newEdgeStyle={&quot;curved&quot;:0,&quot;rounded&quot;:0};" vertex="1" parent="1">
          <mxGeometry x="2376" y="1141" width="10" height="40" as="geometry" />
        </mxCell>
        <mxCell id="rUAOn_QgItGxSgmDU4VE-92" value="Serialize user: serializedUser" style="html=1;align=left;spacingLeft=2;endArrow=block;rounded=0;edgeStyle=orthogonalEdgeStyle;curved=0;rounded=0;" edge="1" parent="1" target="rUAOn_QgItGxSgmDU4VE-91">
          <mxGeometry relative="1" as="geometry">
            <mxPoint x="2381" y="1121" as="sourcePoint" />
            <Array as="points">
              <mxPoint x="2411" y="1151" />
            </Array>
          </mxGeometry>
        </mxCell>
        <mxCell id="7vu5A9_pPTwr3yhHFE2p-89" value="User" style="shape=umlActor;verticalLabelPosition=bottom;verticalAlign=top;html=1;outlineConnect=0;" vertex="1" parent="1">
          <mxGeometry x="3420" y="123" width="30" height="60" as="geometry" />
        </mxCell>
        <mxCell id="7vu5A9_pPTwr3yhHFE2p-90" value="" style="edgeStyle=none;endArrow=none;dashed=1" edge="1" parent="1">
          <mxGeometry x="272.3350694444445" y="165" width="100" height="100" as="geometry">
            <mxPoint x="3435.58" y="205" as="sourcePoint" />
            <mxPoint x="3440" y="850" as="targetPoint" />
          </mxGeometry>
        </mxCell>
        <mxCell id="7vu5A9_pPTwr3yhHFE2p-91" value="Submit Create Survey Form" style="edgeStyle=none;verticalLabelPosition=top;verticalAlign=bottom;labelPosition=left;align=right" edge="1" parent="1">
          <mxGeometry width="100" height="100" as="geometry">
            <mxPoint x="3440" y="220" as="sourcePoint" />
            <mxPoint x="3620" y="219.5" as="targetPoint" />
            <mxPoint x="70" as="offset" />
          </mxGeometry>
        </mxCell>
        <mxCell id="7vu5A9_pPTwr3yhHFE2p-92" value="Browser" style="shadow=1;fillColor=#A2C4C9;strokeColor=none" vertex="1" parent="1">
          <mxGeometry x="3572.5" y="130" width="105" height="50" as="geometry" />
        </mxCell>
        <mxCell id="7vu5A9_pPTwr3yhHFE2p-93" value="Server&#xa;emaily.com" style="shadow=1;fillColor=#A2C4C9;strokeColor=none" vertex="1" parent="1">
          <mxGeometry x="3770" y="130" width="105" height="50" as="geometry" />
        </mxCell>
        <mxCell id="7vu5A9_pPTwr3yhHFE2p-94" value="POST /api/survey&#xa;Cookie: userId" style="edgeStyle=none;verticalLabelPosition=top;verticalAlign=bottom" edge="1" parent="1">
          <mxGeometry width="100" height="100" as="geometry">
            <mxPoint x="3630" y="249.5" as="sourcePoint" />
            <mxPoint x="3820" y="250" as="targetPoint" />
            <mxPoint as="offset" />
          </mxGeometry>
        </mxCell>
        <mxCell id="7vu5A9_pPTwr3yhHFE2p-95" value="EmailProvider" style="shadow=1;fillColor=#A2C4C9;strokeColor=none" vertex="1" parent="1">
          <mxGeometry x="3970.003950617284" y="129.99999999999997" width="105" height="50" as="geometry" />
        </mxCell>
        <mxCell id="7vu5A9_pPTwr3yhHFE2p-96" value="Create Survey - Prod" style="rounded=1;fontStyle=1;fillColor=#FFD966;strokeColor=none" vertex="1" parent="1">
          <mxGeometry x="3390" y="42" width="150" height="30" as="geometry" />
        </mxCell>
        <mxCell id="7vu5A9_pPTwr3yhHFE2p-98" value="POST https://emailprovider.com/send" style="edgeStyle=none;verticalLabelPosition=top;verticalAlign=bottom" edge="1" parent="1">
          <mxGeometry width="100" height="100" as="geometry">
            <mxPoint x="3826" y="476" as="sourcePoint" />
            <mxPoint x="4006" y="476" as="targetPoint" />
            <mxPoint as="offset" />
          </mxGeometry>
        </mxCell>
        <mxCell id="7vu5A9_pPTwr3yhHFE2p-99" value="200" style="edgeStyle=none;verticalLabelPosition=top;verticalAlign=bottom;startArrow=classic;startFill=1;endArrow=none;endFill=0;dashed=1;" edge="1" parent="1">
          <mxGeometry width="100" height="100" as="geometry">
            <mxPoint x="3830" y="664" as="sourcePoint" />
            <mxPoint x="4012.5" y="664.39" as="targetPoint" />
            <mxPoint as="offset" />
          </mxGeometry>
        </mxCell>
        <mxCell id="7vu5A9_pPTwr3yhHFE2p-104" value="302 /surveys" style="edgeStyle=none;verticalLabelPosition=top;verticalAlign=bottom;startArrow=classic;startFill=1;endArrow=none;endFill=0;dashed=1;" edge="1" parent="1">
          <mxGeometry width="100" height="100" as="geometry">
            <mxPoint x="3630" y="750.3299999999999" as="sourcePoint" />
            <mxPoint x="3820" y="750.6300000000001" as="targetPoint" />
            <mxPoint as="offset" />
          </mxGeometry>
        </mxCell>
        <mxCell id="7vu5A9_pPTwr3yhHFE2p-105" value="GET /surveys" style="edgeStyle=none;verticalLabelPosition=top;verticalAlign=bottom" edge="1" parent="1">
          <mxGeometry width="100" height="100" as="geometry">
            <mxPoint x="3632.5" y="794" as="sourcePoint" />
            <mxPoint x="3820" y="794" as="targetPoint" />
            <mxPoint as="offset" />
          </mxGeometry>
        </mxCell>
        <mxCell id="7vu5A9_pPTwr3yhHFE2p-106" value="200" style="edgeStyle=none;verticalLabelPosition=top;verticalAlign=bottom;startArrow=classic;startFill=1;endArrow=none;endFill=0;dashed=1;" edge="1" parent="1">
          <mxGeometry width="100" height="100" as="geometry">
            <mxPoint x="3630" y="814.3299999999999" as="sourcePoint" />
            <mxPoint x="3820" y="814.6300000000001" as="targetPoint" />
            <mxPoint as="offset" />
          </mxGeometry>
        </mxCell>
        <mxCell id="7vu5A9_pPTwr3yhHFE2p-107" value="" style="group" connectable="0" vertex="1" parent="1">
          <mxGeometry x="3513.5" y="529.39" width="800" height="730.61" as="geometry" />
        </mxCell>
        <mxCell id="7vu5A9_pPTwr3yhHFE2p-108" value="alt" style="shape=umlFrame;whiteSpace=wrap;html=1;pointerEvents=0;" vertex="1" parent="7vu5A9_pPTwr3yhHFE2p-107">
          <mxGeometry width="800" height="320" as="geometry" />
        </mxCell>
        <mxCell id="7vu5A9_pPTwr3yhHFE2p-109" value="[emails not sent]" style="text;strokeColor=none;align=center;fillColor=none;html=1;verticalAlign=middle;whiteSpace=wrap;rounded=0;" vertex="1" parent="7vu5A9_pPTwr3yhHFE2p-107">
          <mxGeometry x="10" y="25.41259194815358" width="90" height="34.538851784482986" as="geometry" />
        </mxCell>
        <mxCell id="7vu5A9_pPTwr3yhHFE2p-110" value="[emails sent]" style="text;strokeColor=none;align=center;fillColor=none;html=1;verticalAlign=middle;whiteSpace=wrap;rounded=0;" vertex="1" parent="7vu5A9_pPTwr3yhHFE2p-107">
          <mxGeometry x="6" y="102.69375294681463" width="90" height="34.538851784482986" as="geometry" />
        </mxCell>
        <mxCell id="7vu5A9_pPTwr3yhHFE2p-111" value="" style="edgeStyle=none;orthogonalLoop=1;jettySize=auto;html=1;rounded=0;exitX=0.001;exitY=0.434;exitDx=0;exitDy=0;exitPerimeter=0;entryX=1;entryY=0.435;entryDx=0;entryDy=0;entryPerimeter=0;endArrow=none;endFill=0;dashed=1;" edge="1" parent="7vu5A9_pPTwr3yhHFE2p-107">
          <mxGeometry width="80" relative="1" as="geometry">
            <mxPoint x="0.5200000000004366" y="101.42692444746989" as="sourcePoint" />
            <mxPoint x="520.0000000000005" y="101.81477272710853" as="targetPoint" />
            <Array as="points" />
          </mxGeometry>
        </mxCell>
        <mxCell id="7vu5A9_pPTwr3yhHFE2p-112" value="400 couldn&#39;t send emaills" style="edgeStyle=none;verticalLabelPosition=top;verticalAlign=bottom;startArrow=classic;startFill=1;endArrow=none;endFill=0;dashed=1;" edge="1" parent="1">
          <mxGeometry width="100" height="100" as="geometry">
            <mxPoint x="3830" y="579" as="sourcePoint" />
            <mxPoint x="4012.5" y="579.39" as="targetPoint" />
            <mxPoint as="offset" />
          </mxGeometry>
        </mxCell>
        <mxCell id="7vu5A9_pPTwr3yhHFE2p-115" value="title&#xa;to (recipientList)&#xa;    email&#xa;from&#xa;subject&#xa;body" style="shape=note;align=left;fontSize=8;" vertex="1" parent="1">
          <mxGeometry x="3900" y="205" width="100" height="75" as="geometry" />
        </mxCell>
        <mxCell id="7vu5A9_pPTwr3yhHFE2p-116" value="" style="edgeStyle=none;endArrow=none;dashed=1;exitX=0;exitY=0;exitDx=0;exitDy=0;exitPerimeter=0;" edge="1" parent="1" source="7vu5A9_pPTwr3yhHFE2p-115">
          <mxGeometry x="1030" y="180" width="100" height="100" as="geometry">
            <mxPoint x="4074.9999999999995" y="383" as="sourcePoint" />
            <mxPoint x="3830" y="240" as="targetPoint" />
          </mxGeometry>
        </mxCell>
        <mxCell id="7vu5A9_pPTwr3yhHFE2p-117" value="" style="edgeStyle=none;endArrow=none;dashed=1;exitX=0;exitY=0;exitDx=0;exitDy=0;exitPerimeter=0;" edge="1" parent="1" source="7vu5A9_pPTwr3yhHFE2p-130">
          <mxGeometry x="1030" y="180" width="100" height="100" as="geometry">
            <mxPoint x="4060" y="327" as="sourcePoint" />
            <mxPoint x="3960" y="464" as="targetPoint" />
          </mxGeometry>
        </mxCell>
        <mxCell id="7vu5A9_pPTwr3yhHFE2p-118" value="alt" style="shape=umlFrame;whiteSpace=wrap;html=1;pointerEvents=0;" vertex="1" parent="1">
          <mxGeometry x="3475" y="356" width="870" height="514" as="geometry" />
        </mxCell>
        <mxCell id="7vu5A9_pPTwr3yhHFE2p-119" value="[not enough credits]" style="text;strokeColor=none;align=center;fillColor=none;html=1;verticalAlign=middle;whiteSpace=wrap;rounded=0;" vertex="1" parent="1">
          <mxGeometry x="3469.596153846154" y="390.65999999999997" width="176.34615384615384" height="14.07" as="geometry" />
        </mxCell>
        <mxCell id="7vu5A9_pPTwr3yhHFE2p-120" value="[enough credits]" style="text;strokeColor=none;align=center;fillColor=none;html=1;verticalAlign=middle;whiteSpace=wrap;rounded=0;" vertex="1" parent="1">
          <mxGeometry x="3457.5576923076924" y="438.45" width="181.3846153846154" height="14.07" as="geometry" />
        </mxCell>
        <mxCell id="7vu5A9_pPTwr3yhHFE2p-121" value="" style="edgeStyle=none;orthogonalLoop=1;jettySize=auto;html=1;rounded=0;exitX=0.001;exitY=0.434;exitDx=0;exitDy=0;exitPerimeter=0;entryX=1;entryY=0.435;entryDx=0;entryDy=0;entryPerimeter=0;endArrow=none;endFill=0;dashed=1;" edge="1" parent="1">
          <mxGeometry width="80" relative="1" as="geometry">
            <mxPoint x="3475.6550000000007" y="428.2281879381507" as="sourcePoint" />
            <mxPoint x="4130" y="428.3861879381507" as="targetPoint" />
            <Array as="points" />
          </mxGeometry>
        </mxCell>
        <mxCell id="7vu5A9_pPTwr3yhHFE2p-126" value="" style="edgeStyle=elbowEdgeStyle;elbow=horizontal;endArrow=none;dashed=1" edge="1" parent="1">
          <mxGeometry x="-1863" y="-627" width="100" height="100" as="geometry">
            <mxPoint x="3625" y="200" as="sourcePoint" />
            <mxPoint x="3625" y="680" as="targetPoint" />
            <Array as="points">
              <mxPoint x="3625" y="860" />
            </Array>
          </mxGeometry>
        </mxCell>
        <mxCell id="7vu5A9_pPTwr3yhHFE2p-127" value="" style="edgeStyle=none;endArrow=none;dashed=1" edge="1" parent="1">
          <mxGeometry x="-1820.6649305555554" y="-772" width="100" height="100" as="geometry">
            <mxPoint x="3822.440758293839" y="200" as="sourcePoint" />
            <mxPoint x="3822" y="920" as="targetPoint" />
          </mxGeometry>
        </mxCell>
        <mxCell id="7vu5A9_pPTwr3yhHFE2p-128" value="" style="edgeStyle=none;endArrow=none;dashed=1;" edge="1" parent="1">
          <mxGeometry x="-1655.957175925926" y="-667" width="100" height="100" as="geometry">
            <mxPoint x="4022.5157053419925" y="200" as="sourcePoint" />
            <mxPoint x="4023" y="920" as="targetPoint" />
          </mxGeometry>
        </mxCell>
        <mxCell id="7vu5A9_pPTwr3yhHFE2p-129" value="" style="edgeStyle=none;endArrow=none;dashed=1;" edge="1" parent="1">
          <mxGeometry x="-1655.957175925926" y="-667" width="100" height="100" as="geometry">
            <mxPoint x="4212.532207167065" y="198.93999999999994" as="sourcePoint" />
            <mxPoint x="4213" y="920" as="targetPoint" />
          </mxGeometry>
        </mxCell>
        <mxCell id="7vu5A9_pPTwr3yhHFE2p-130" value="to (recipientList)&#xa;    email&#xa;from&#xa;subject&#xa;body" style="shape=note;align=left;fontSize=8;" vertex="1" parent="1">
          <mxGeometry x="4050" y="442" width="110" height="56" as="geometry" />
        </mxCell>
        <mxCell id="7vu5A9_pPTwr3yhHFE2p-132" value="400 not enough credits" style="edgeStyle=none;verticalLabelPosition=top;verticalAlign=bottom;startArrow=classic;startFill=1;endArrow=none;endFill=0;dashed=1;" edge="1" parent="1">
          <mxGeometry width="100" height="71.81818181818181" as="geometry">
            <mxPoint x="3630" y="411" as="sourcePoint" />
            <mxPoint x="3812" y="411.0018181818182" as="targetPoint" />
            <mxPoint as="offset" />
          </mxGeometry>
        </mxCell>
        <mxCell id="7vu5A9_pPTwr3yhHFE2p-134" value="MongoDB" style="shadow=1;fillColor=#A2C4C9;strokeColor=none" vertex="1" parent="1">
          <mxGeometry x="4160.003950617283" y="130" width="105" height="50" as="geometry" />
        </mxCell>
        <mxCell id="7vu5A9_pPTwr3yhHFE2p-135" value="surveys.insert(survey)" style="edgeStyle=none;verticalLabelPosition=top;verticalAlign=bottom" edge="1" parent="1">
          <mxGeometry width="100" height="100" as="geometry">
            <mxPoint x="3830" y="700" as="sourcePoint" />
            <mxPoint x="4207.5" y="700" as="targetPoint" />
            <mxPoint as="offset" />
          </mxGeometry>
        </mxCell>
        <mxCell id="7vu5A9_pPTwr3yhHFE2p-138" value="OK: survey" style="edgeStyle=none;verticalLabelPosition=top;verticalAlign=bottom;startArrow=classic;startFill=1;endArrow=none;endFill=0;dashed=1;" edge="1" parent="1">
          <mxGeometry width="100" height="100" as="geometry">
            <mxPoint x="3831" y="723" as="sourcePoint" />
            <mxPoint x="4210" y="725" as="targetPoint" />
            <mxPoint as="offset" />
          </mxGeometry>
        </mxCell>
        <mxCell id="7vu5A9_pPTwr3yhHFE2p-139" value="user.findOne({ userId })" style="edgeStyle=none;verticalLabelPosition=top;verticalAlign=bottom" edge="1" parent="1">
          <mxGeometry width="100" height="100" as="geometry">
            <mxPoint x="3828.75" y="308.77" as="sourcePoint" />
            <mxPoint x="4206.25" y="308.77" as="targetPoint" />
            <mxPoint as="offset" />
          </mxGeometry>
        </mxCell>
        <mxCell id="7vu5A9_pPTwr3yhHFE2p-148" value="400 couldn&#39;t send emaills" style="edgeStyle=none;verticalLabelPosition=top;verticalAlign=bottom;startArrow=classic;startFill=1;endArrow=none;endFill=0;dashed=1;" edge="1" parent="1">
          <mxGeometry width="100" height="71.81818181818181" as="geometry">
            <mxPoint x="3630" y="612" as="sourcePoint" />
            <mxPoint x="3812" y="612.0018181818182" as="targetPoint" />
            <mxPoint as="offset" />
          </mxGeometry>
        </mxCell>
        <mxCell id="7vu5A9_pPTwr3yhHFE2p-149" value="200: user" style="edgeStyle=none;verticalLabelPosition=top;verticalAlign=bottom;startArrow=classic;startFill=1;endArrow=none;endFill=0;dashed=1;" edge="1" parent="1">
          <mxGeometry width="100" height="71.81818181818181" as="geometry">
            <mxPoint x="3830" y="337" as="sourcePoint" />
            <mxPoint x="4205" y="337.0018181818182" as="targetPoint" />
            <mxPoint as="offset" />
          </mxGeometry>
        </mxCell>
        <mxCell id="HKtw_IkV2InnPs0i5z34-89" value="" style="edgeStyle=none;endArrow=none;dashed=1" edge="1" parent="1">
          <mxGeometry x="272.3350694444445" y="165" width="100" height="100" as="geometry">
            <mxPoint x="3435.58" y="205" as="sourcePoint" />
            <mxPoint x="3440" y="920" as="targetPoint" />
          </mxGeometry>
        </mxCell>
        <mxCell id="HKtw_IkV2InnPs0i5z34-90" value="" style="edgeStyle=elbowEdgeStyle;elbow=horizontal;endArrow=none;dashed=1" edge="1" parent="1">
          <mxGeometry x="-1863" y="-627" width="100" height="100" as="geometry">
            <mxPoint x="3625" y="200" as="sourcePoint" />
            <mxPoint x="3625" y="680" as="targetPoint" />
            <Array as="points">
              <mxPoint x="3625" y="920" />
            </Array>
          </mxGeometry>
        </mxCell>
        <mxCell id="HKtw_IkV2InnPs0i5z34-133" value="User" style="shape=umlActor;verticalLabelPosition=bottom;verticalAlign=top;html=1;outlineConnect=0;" vertex="1" parent="1">
          <mxGeometry x="4630" y="111" width="30" height="60" as="geometry" />
        </mxCell>
        <mxCell id="HKtw_IkV2InnPs0i5z34-134" value="" style="edgeStyle=none;endArrow=none;dashed=1" edge="1" parent="1">
          <mxGeometry x="272.3350694444445" y="165" width="100" height="100" as="geometry">
            <mxPoint x="4645.58" y="193" as="sourcePoint" />
            <mxPoint x="4650" y="838" as="targetPoint" />
          </mxGeometry>
        </mxCell>
        <mxCell id="HKtw_IkV2InnPs0i5z34-135" value="Get Surveys" style="edgeStyle=none;verticalLabelPosition=top;verticalAlign=bottom;labelPosition=left;align=right" edge="1" parent="1">
          <mxGeometry width="100" height="100" as="geometry">
            <mxPoint x="4650" y="208" as="sourcePoint" />
            <mxPoint x="4830" y="207.5" as="targetPoint" />
            <mxPoint x="40" as="offset" />
          </mxGeometry>
        </mxCell>
        <mxCell id="HKtw_IkV2InnPs0i5z34-136" value="Browser" style="shadow=1;fillColor=#A2C4C9;strokeColor=none" vertex="1" parent="1">
          <mxGeometry x="4782.5" y="118" width="105" height="50" as="geometry" />
        </mxCell>
        <mxCell id="HKtw_IkV2InnPs0i5z34-137" value="Server&#xa;emaily.com" style="shadow=1;fillColor=#A2C4C9;strokeColor=none" vertex="1" parent="1">
          <mxGeometry x="4980" y="118" width="105" height="50" as="geometry" />
        </mxCell>
        <mxCell id="HKtw_IkV2InnPs0i5z34-138" value="GET /api/survey&#xa;Cookie: userId" style="edgeStyle=none;verticalLabelPosition=top;verticalAlign=bottom" edge="1" parent="1">
          <mxGeometry width="100" height="100" as="geometry">
            <mxPoint x="4840" y="237.5" as="sourcePoint" />
            <mxPoint x="5030" y="238" as="targetPoint" />
            <mxPoint as="offset" />
          </mxGeometry>
        </mxCell>
        <mxCell id="HKtw_IkV2InnPs0i5z34-139" value="Redis" style="shadow=1;fillColor=#A2C4C9;strokeColor=none" vertex="1" parent="1">
          <mxGeometry x="5180.003950617283" y="117.99999999999997" width="105" height="50" as="geometry" />
        </mxCell>
        <mxCell id="HKtw_IkV2InnPs0i5z34-140" value="Get Surveys - Prod" style="rounded=1;fontStyle=1;fillColor=#FFD966;strokeColor=none" vertex="1" parent="1">
          <mxGeometry x="4600" y="30" width="150" height="30" as="geometry" />
        </mxCell>
        <mxCell id="HKtw_IkV2InnPs0i5z34-141" value="GET &#39;Survey{&quot;_user&quot;:&quot;userId&quot;}&#39;" style="edgeStyle=none;verticalLabelPosition=top;verticalAlign=bottom" edge="1" parent="1">
          <mxGeometry width="100" height="100" as="geometry">
            <mxPoint x="5038" y="348" as="sourcePoint" />
            <mxPoint x="5218" y="348" as="targetPoint" />
            <mxPoint as="offset" />
          </mxGeometry>
        </mxCell>
        <mxCell id="HKtw_IkV2InnPs0i5z34-142" value="NOT FOUND" style="edgeStyle=none;verticalLabelPosition=top;verticalAlign=bottom;startArrow=classic;startFill=1;endArrow=none;endFill=0;dashed=1;" edge="1" parent="1">
          <mxGeometry width="100" height="100" as="geometry">
            <mxPoint x="5042" y="514" as="sourcePoint" />
            <mxPoint x="5224.5" y="514.39" as="targetPoint" />
            <mxPoint as="offset" />
          </mxGeometry>
        </mxCell>
        <mxCell id="HKtw_IkV2InnPs0i5z34-143" value="200: surveys" style="edgeStyle=none;verticalLabelPosition=top;verticalAlign=bottom;startArrow=classic;startFill=1;endArrow=none;endFill=0;dashed=1;" edge="1" parent="1">
          <mxGeometry width="100" height="100" as="geometry">
            <mxPoint x="4842" y="679.3299999999999" as="sourcePoint" />
            <mxPoint x="5032" y="679.6300000000001" as="targetPoint" />
            <mxPoint as="offset" />
          </mxGeometry>
        </mxCell>
        <mxCell id="HKtw_IkV2InnPs0i5z34-151" value="OK: surveys" style="edgeStyle=none;verticalLabelPosition=top;verticalAlign=bottom;startArrow=classic;startFill=1;endArrow=none;endFill=0;dashed=1;" edge="1" parent="1">
          <mxGeometry width="100" height="100" as="geometry">
            <mxPoint x="5042" y="429" as="sourcePoint" />
            <mxPoint x="5224.5" y="429.39" as="targetPoint" />
            <mxPoint as="offset" />
          </mxGeometry>
        </mxCell>
        <mxCell id="HKtw_IkV2InnPs0i5z34-159" value="" style="edgeStyle=elbowEdgeStyle;elbow=horizontal;endArrow=none;dashed=1" edge="1" parent="1">
          <mxGeometry x="-1863" y="-627" width="100" height="100" as="geometry">
            <mxPoint x="4835" y="188" as="sourcePoint" />
            <mxPoint x="4835" y="668" as="targetPoint" />
            <Array as="points">
              <mxPoint x="4835" y="848" />
            </Array>
          </mxGeometry>
        </mxCell>
        <mxCell id="HKtw_IkV2InnPs0i5z34-160" value="" style="edgeStyle=none;endArrow=none;dashed=1" edge="1" parent="1">
          <mxGeometry x="-1820.6649305555554" y="-772" width="100" height="100" as="geometry">
            <mxPoint x="5032.440758293838" y="188" as="sourcePoint" />
            <mxPoint x="5032" y="908" as="targetPoint" />
          </mxGeometry>
        </mxCell>
        <mxCell id="HKtw_IkV2InnPs0i5z34-161" value="" style="edgeStyle=none;endArrow=none;dashed=1;" edge="1" parent="1">
          <mxGeometry x="-1655.957175925926" y="-667" width="100" height="100" as="geometry">
            <mxPoint x="5232.5157053419925" y="188" as="sourcePoint" />
            <mxPoint x="5233" y="908" as="targetPoint" />
          </mxGeometry>
        </mxCell>
        <mxCell id="HKtw_IkV2InnPs0i5z34-162" value="" style="edgeStyle=none;endArrow=none;dashed=1;" edge="1" parent="1">
          <mxGeometry x="-1655.957175925926" y="-667" width="100" height="100" as="geometry">
            <mxPoint x="5422.532207167065" y="186.93999999999994" as="sourcePoint" />
            <mxPoint x="5423" y="908" as="targetPoint" />
          </mxGeometry>
        </mxCell>
        <mxCell id="HKtw_IkV2InnPs0i5z34-165" value="MongoDB" style="shadow=1;fillColor=#A2C4C9;strokeColor=none" vertex="1" parent="1">
          <mxGeometry x="5370.003950617283" y="118" width="105" height="50" as="geometry" />
        </mxCell>
        <mxCell id="HKtw_IkV2InnPs0i5z34-166" value="survey.find({ userId })" style="edgeStyle=none;verticalLabelPosition=top;verticalAlign=bottom" edge="1" parent="1">
          <mxGeometry width="100" height="100" as="geometry">
            <mxPoint x="5042" y="558" as="sourcePoint" />
            <mxPoint x="5419.5" y="558" as="targetPoint" />
            <mxPoint as="offset" />
          </mxGeometry>
        </mxCell>
        <mxCell id="HKtw_IkV2InnPs0i5z34-167" value="OK: surveys" style="edgeStyle=none;verticalLabelPosition=top;verticalAlign=bottom;startArrow=classic;startFill=1;endArrow=none;endFill=0;dashed=1;" edge="1" parent="1">
          <mxGeometry width="100" height="100" as="geometry">
            <mxPoint x="5043" y="581" as="sourcePoint" />
            <mxPoint x="5422" y="583" as="targetPoint" />
            <mxPoint as="offset" />
          </mxGeometry>
        </mxCell>
        <mxCell id="HKtw_IkV2InnPs0i5z34-168" value="user.findOne({ userId })" style="edgeStyle=none;verticalLabelPosition=top;verticalAlign=bottom" edge="1" parent="1">
          <mxGeometry width="100" height="100" as="geometry">
            <mxPoint x="5038.75" y="271.77" as="sourcePoint" />
            <mxPoint x="5416.25" y="271.77" as="targetPoint" />
            <mxPoint as="offset" />
          </mxGeometry>
        </mxCell>
        <mxCell id="HKtw_IkV2InnPs0i5z34-169" value="200: surveys" style="edgeStyle=none;verticalLabelPosition=top;verticalAlign=bottom;startArrow=classic;startFill=1;endArrow=none;endFill=0;dashed=1;" edge="1" parent="1">
          <mxGeometry width="100" height="71.81818181818181" as="geometry">
            <mxPoint x="4842" y="462" as="sourcePoint" />
            <mxPoint x="5024" y="462.0018181818182" as="targetPoint" />
            <mxPoint as="offset" />
          </mxGeometry>
        </mxCell>
        <mxCell id="HKtw_IkV2InnPs0i5z34-170" value="200: user" style="edgeStyle=none;verticalLabelPosition=top;verticalAlign=bottom;startArrow=classic;startFill=1;endArrow=none;endFill=0;dashed=1;" edge="1" parent="1">
          <mxGeometry width="100" height="71.81818181818181" as="geometry">
            <mxPoint x="5040" y="300" as="sourcePoint" />
            <mxPoint x="5415" y="300.0018181818182" as="targetPoint" />
            <mxPoint as="offset" />
          </mxGeometry>
        </mxCell>
        <mxCell id="HKtw_IkV2InnPs0i5z34-171" value="" style="edgeStyle=none;endArrow=none;dashed=1" edge="1" parent="1">
          <mxGeometry x="272.3350694444445" y="165" width="100" height="100" as="geometry">
            <mxPoint x="4645.58" y="193" as="sourcePoint" />
            <mxPoint x="4650" y="908" as="targetPoint" />
          </mxGeometry>
        </mxCell>
        <mxCell id="HKtw_IkV2InnPs0i5z34-172" value="" style="edgeStyle=elbowEdgeStyle;elbow=horizontal;endArrow=none;dashed=1" edge="1" parent="1">
          <mxGeometry x="-1863" y="-627" width="100" height="100" as="geometry">
            <mxPoint x="4835" y="188" as="sourcePoint" />
            <mxPoint x="4835" y="668" as="targetPoint" />
            <Array as="points">
              <mxPoint x="4835" y="908" />
            </Array>
          </mxGeometry>
        </mxCell>
        <mxCell id="HKtw_IkV2InnPs0i5z34-176" value="alt" style="shape=umlFrame;whiteSpace=wrap;html=1;pointerEvents=0;" vertex="1" parent="1">
          <mxGeometry x="4717.44" y="374.39" width="742.56" height="355.61" as="geometry" />
        </mxCell>
        <mxCell id="HKtw_IkV2InnPs0i5z34-177" value="[cache hit]" style="text;strokeColor=none;align=center;fillColor=none;html=1;verticalAlign=middle;whiteSpace=wrap;rounded=0;" vertex="1" parent="1">
          <mxGeometry x="4693.036153846154" y="417.04999999999995" width="176.34615384615384" height="14.07" as="geometry" />
        </mxCell>
        <mxCell id="HKtw_IkV2InnPs0i5z34-178" value="[cache miss]" style="text;strokeColor=none;align=center;fillColor=none;html=1;verticalAlign=middle;whiteSpace=wrap;rounded=0;" vertex="1" parent="1">
          <mxGeometry x="4697.997692307692" y="493.84000000000003" width="181.3846153846154" height="14.07" as="geometry" />
        </mxCell>
        <mxCell id="HKtw_IkV2InnPs0i5z34-179" value="" style="edgeStyle=none;orthogonalLoop=1;jettySize=auto;html=1;rounded=0;exitX=0.001;exitY=0.434;exitDx=0;exitDy=0;exitPerimeter=0;endArrow=none;endFill=0;dashed=1;" edge="1" parent="1">
          <mxGeometry width="80" relative="1" as="geometry">
            <mxPoint x="4718.095000000001" y="482.61818793815075" as="sourcePoint" />
            <mxPoint x="5460" y="483" as="targetPoint" />
            <Array as="points" />
          </mxGeometry>
        </mxCell>
        <mxCell id="HKtw_IkV2InnPs0i5z34-181" value="SET (&#39;Survey{&quot;_user&quot;:&quot;userId&quot;}&#39;, surveys)" style="edgeStyle=none;verticalLabelPosition=top;verticalAlign=bottom" edge="1" parent="1">
          <mxGeometry width="100" height="100" as="geometry">
            <mxPoint x="5043" y="625.52" as="sourcePoint" />
            <mxPoint x="5223" y="625.52" as="targetPoint" />
            <mxPoint as="offset" />
          </mxGeometry>
        </mxCell>
        <mxCell id="HKtw_IkV2InnPs0i5z34-182" value="OK" style="edgeStyle=none;verticalLabelPosition=top;verticalAlign=bottom;startArrow=classic;startFill=1;endArrow=none;endFill=0;dashed=1;" edge="1" parent="1">
          <mxGeometry width="100" height="100" as="geometry">
            <mxPoint x="5040" y="648.88" as="sourcePoint" />
            <mxPoint x="5222.5" y="649.27" as="targetPoint" />
            <mxPoint as="offset" />
          </mxGeometry>
        </mxCell>
      </root>
    </mxGraphModel>
  </diagram>
</mxfile>
